<svg width="272" height="80" viewBox="63 30 272 70" fill="none" xmlns="http://www.w3.org/2000/svg">
<path d="M96.3398 33C104.46 33 110.62 34.4002 114.86 37.2002C115.9 37.8801 116.78 38.6406 117.58 39.4805C119.98 42.0804 121.18 45.3605 121.18 49.3604V49.5195L90.5 72.5996V59.8799L104.54 49.3203C104.26 48.4004 103.74 47.5999 102.98 46.96C101.701 45.88 99.9401 45.3203 97.7002 45.3203H81.7402V82.5996H98.7002C101.54 82.5996 103.7 82.0798 105.1 81C106.5 79.92 107.22 77.9601 107.22 76.2002C107.22 74.4402 106.66 73 105.62 71.96L115.54 64.5596C116.1 64.7596 116.66 65.0403 117.18 65.3203C119.38 66.5603 121.06 68.1602 122.14 70.1602L122.18 70.2002C123.26 72.2002 123.82 71.6404 123.82 77.3604C123.82 83.0802 121.42 87.4805 116.7 90.4805C111.94 93.4804 105.1 95 96.0996 95H65.3799V33H96.3398Z" fill="currentColor"/>
<path fill-rule="evenodd" clip-rule="evenodd" d="M177.94 51.1201C194.14 51.1203 204.9 59.8801 204.9 72.9199C204.9 85.9598 194.06 94.7596 177.94 94.7598C161.74 94.7598 150.9 86.0799 150.9 72.9199C150.9 59.76 161.74 51.1201 177.94 51.1201ZM177.94 62.5596C170.26 62.5596 165.46 66.52 165.46 72.96C165.46 79.4 170.18 83.3604 177.94 83.3604C185.62 83.3602 190.34 79.3998 190.34 72.96C190.34 66.5201 185.62 62.5597 177.94 62.5596Z" fill="currentColor"/>
<path d="M276.98 94.2803H262.66V51.6396H276.98V94.2803Z" fill="currentColor"/>
<path d="M284.7 94.2803L284.66 94.2402H284.7V94.2803Z" fill="currentColor"/>
<path d="M145.1 94.2402H130.78V36.4004H145.1V94.2402Z" fill="currentColor"/>
<path d="M257.14 49.2803H226.38V59.6797H252.34V71.7598H226.38V94.2402H211.18V36.4004H257.14V49.2803Z" fill="currentColor"/>
<path d="M314.22 51.1201C327.26 51.1201 334.62 58.8799 334.62 72.6797V94.2402H320.3V73.9199C320.3 66.4 316.9 62.5195 310.22 62.5195C303.54 62.5196 298.98 66.3202 298.98 73.0801V94.2402H284.7V51.6396H297.78L298.78 57.0801C302.42 53.0402 307.38 51.1202 314.22 51.1201Z" fill="currentColor"/>
<path d="M269.78 33.0801C274.14 33.0802 277.54 36.2405 277.54 40.4404C277.54 44.6401 274.14 47.7997 269.78 47.7998C265.38 47.7998 262.021 44.6802 262.021 40.4404C262.021 36.2004 265.42 33.0801 269.78 33.0801Z" fill="currentColor"/>
</svg>
